<?xml version="1.0" standalone="no"?>
<!DOCTYPE svg PUBLIC "-//W3C//DTD SVG 20010904//EN"
 "http://www.w3.org/TR/2001/REC-SVG-20010904/DTD/svg10.dtd">
<svg version="1.0" xmlns="http://www.w3.org/2000/svg"
 width="260.000000pt" height="260.000000pt" viewBox="0 0 260.000000 260.000000"
 preserveAspectRatio="xMidYMid meet">
<metadata>
Created by potrace 1.11, written by Peter Selinger 2001-2013
</metadata>
<g transform="translate(0.000000,260.000000) scale(0.100000,-0.100000)"
fill="#000000" stroke="none">
<path d="M1198 2595 c-2 -1 -31 -6 -65 -9 -35 -4 -68 -9 -75 -11 -7 -2 -24 -7
-38 -9 -43 -8 -83 -19 -110 -28 -8 -3 -37 -14 -65 -23 -27 -10 -77 -32 -110
-48 -33 -17 -63 -30 -67 -29 -5 1 -8 -2 -8 -7 0 -5 -9 -13 -20 -16 -40 -13
-187 -129 -266 -210 -80 -82 -174 -203 -174 -224 0 -6 -4 -11 -8 -11 -10 0
-91 -168 -117 -240 -21 -58 -27 -82 -50 -190 -25 -113 -25 -400 -1 -470 3 -8
7 -31 10 -50 12 -82 124 -363 155 -390 3 -3 23 -31 44 -63 137 -209 383 -398
632 -487 80 -28 99 -33 165 -46 14 -2 31 -7 37 -9 21 -7 154 -18 223 -19 301
-1 590 98 820 283 54 43 200 188 200 199 0 4 10 18 23 32 107 117 232 418 254
615 13 110 5 377 -11 404 -2 3 -7 22 -10 41 -18 116 -105 314 -198 453 -57 85
-234 277 -256 277 -6 0 -12 4 -14 8 -4 12 -124 92 -183 124 -51 27 -209 97
-223 98 -15 2 -58 12 -72 17 -20 8 -19 8 -73 17 -27 4 -59 10 -70 12 -24 5
-274 13 -279 9z m232 -169 c93 -10 220 -44 313 -82 71 -29 217 -114 217 -126
0 -4 6 -8 14 -8 13 0 181 -159 220 -209 33 -43 102 -155 124 -201 28 -62 54
-123 57 -135 2 -5 8 -30 15 -55 7 -25 14 -54 16 -65 2 -11 5 -31 9 -45 23
-101 23 -286 0 -405 -23 -122 -81 -276 -137 -365 -15 -25 -31 -53 -34 -62 -4
-10 -10 -18 -15 -18 -5 0 -15 -12 -23 -28 -32 -62 -231 -245 -315 -290 -82
-43 -120 -62 -151 -76 -48 -21 -149 -53 -185 -60 -16 -2 -41 -8 -55 -11 -43
-12 -312 -15 -370 -4 -133 23 -233 56 -345 111 -44 22 -81 44 -83 49 -2 5 -9
9 -16 9 -7 0 -21 9 -31 20 -10 11 -22 20 -27 20 -24 0 -190 168 -250 252 -88
124 -175 328 -192 448 -3 25 -8 56 -11 70 -8 36 -8 227 -1 280 10 69 48 224
57 234 5 6 9 16 9 23 0 39 149 303 171 303 5 0 9 6 9 13 1 27 199 203 290 257
81 48 172 89 235 107 6 1 35 9 65 18 129 36 272 47 420 31z"/>
<path d="M1279 2287 c-3 -43 -51 -175 -115 -315 -13 -29 -24 -57 -24 -62 0 -6
-5 -10 -12 -10 -6 0 -9 -3 -6 -6 3 -3 -12 -39 -33 -81 -21 -42 -39 -77 -39
-80 0 -2 10 -1 23 2 12 3 31 6 42 8 11 1 25 6 32 10 17 10 21 -13 10 -53 -13
-50 -88 -210 -98 -210 -5 0 -9 -6 -9 -12 0 -7 -18 -41 -40 -75 -37 -60 -38
-63 -17 -63 12 0 39 4 60 9 20 5 39 6 41 2 7 -10 -61 -174 -110 -268 -41 -77
-42 -83 -21 -79 12 3 22 5 22 6 0 3 33 6 135 16 144 14 399 7 475 -12 15 -4
26 -3 24 2 -2 5 -20 41 -40 79 -38 73 -72 166 -88 235 -10 46 -6 48 57 26 43
-15 61 -8 40 16 -50 55 -178 328 -178 380 0 5 12 5 27 2 15 -4 33 -7 40 -7 7
0 13 -3 13 -7 0 -3 9 -6 19 -7 18 -2 17 4 -14 60 -52 95 -128 270 -170 392
-40 118 -44 127 -46 102z"/>
<path d="M1917 1910 c-3 -8 -21 -60 -41 -116 -20 -56 -36 -106 -36 -112 0 -7
-4 -12 -10 -12 -5 0 -10 -6 -10 -14 0 -7 -17 -49 -37 -92 -21 -43 -39 -83 -41
-87 -2 -5 17 -6 42 -3 26 3 46 1 46 -4 0 -30 -108 -265 -141 -306 -11 -13 -2
-24 14 -19 7 3 25 7 41 9 26 5 28 3 23 -22 -4 -21 -36 -99 -54 -133 -2 -4 11
-10 29 -14 18 -4 38 -9 45 -10 84 -20 288 -108 362 -157 33 -21 34 -21 27 -3
-52 124 -113 341 -101 353 3 4 20 1 37 -6 38 -14 47 -8 29 20 -57 91 -134 278
-122 296 6 9 17 9 60 -4 13 -4 22 -3 20 2 -3 5 -24 49 -47 98 -23 49 -42 93
-42 98 0 4 -5 16 -11 26 -5 9 -25 64 -44 122 -18 58 -36 98 -38 90z"/>
<path d="M665 1900 c-3 -5 -4 -10 -1 -10 13 0 -102 -303 -136 -357 -11 -18
-16 -33 -13 -33 4 0 2 -7 -5 -15 -15 -18 -3 -19 35 -5 15 6 31 8 35 5 19 -12
-43 -170 -112 -289 -24 -40 -26 -47 -11 -42 10 4 30 10 45 13 26 5 27 4 22
-33 -3 -21 -11 -62 -20 -90 -8 -28 -16 -60 -19 -70 -3 -17 -40 -119 -60 -167
-6 -13 9 -7 53 21 58 37 214 110 252 117 10 2 27 8 37 13 10 6 23 11 28 11 20
3 85 22 85 25 0 2 -11 28 -24 57 -12 30 -26 66 -30 81 -6 26 -5 27 26 22 18
-3 39 -7 46 -10 14 -4 16 22 2 31 -10 6 -83 152 -114 229 -19 45 -21 90 -5 80
6 -3 26 -8 44 -11 l33 -4 -26 53 c-49 98 -128 302 -138 356 -7 32 -17 41 -29
22z"/>
<path d="M1128 925 c-2 -2 -26 -7 -53 -10 -122 -16 -177 -28 -293 -66 -93 -30
-246 -103 -291 -138 -23 -18 -24 -20 -9 -42 29 -46 99 -108 146 -131 87 -42
171 -32 264 34 27 19 27 19 70 -9 107 -69 186 -70 290 -4 l47 30 57 -34 c59
-36 119 -50 172 -42 35 6 132 56 132 69 0 13 27 9 42 -6 8 -8 37 -25 64 -39
40 -20 63 -25 110 -23 75 3 127 29 193 98 60 62 70 84 44 103 -34 26 -171 95
-187 95 -9 0 -16 4 -16 9 0 5 -10 11 -22 14 -13 3 -54 15 -93 27 -38 11 -79
23 -90 25 -11 3 -40 9 -65 14 -25 6 -63 13 -85 16 -43 7 -421 15 -427 10z"/>
</g>
</svg>
